 <svg version="1.0" xmlns="http://www.w3.org/2000/svg" width="700.000000pt" height="700.000000pt" viewBox="0 0 700.000000 700.000000" preserveAspectRatio="xMidYMid meet">
<metadata>
Created by potrace 1.12, written by Peter Selinger 2001-2015
</metadata>
<g transform="translate(0.000000,700.000000) scale(0.100000,-0.100000)" fill="#000000" stroke="none">
<path d="M4368 4423 c-10 -2 -18 -9 -18 -15 0 -6 10 -8 23 -4 12 3 50 6 85 6
34 0 62 4 62 10 0 10 -117 12 -152 3z"></path>
<path d="M5140 4420 c-14 -5 -46 -11 -71 -15 -57 -7 -129 -64 -129 -100 0 -13
-4 -27 -10 -30 -5 -3 -10 -17 -10 -31 0 -13 5 -24 10 -24 6 0 10 11 10 25 0
32 43 100 72 116 42 22 162 49 223 49 33 0 96 -9 140 -19 68 -17 85 -25 112
-56 47 -54 56 -116 51 -330 -6 -254 -23 -282 -183 -313 -47 -9 -85 -20 -85
-25 0 -5 14 -7 33 -3 17 4 58 9 89 13 37 4 63 12 74 24 10 11 23 19 30 19 8 0
23 19 36 43 20 39 22 59 26 262 3 220 3 220 -23 277 -17 38 -37 64 -59 77 -60
38 -270 63 -336 41z"></path>
<path d="M4540 4410 c0 -5 7 -10 15 -10 8 0 15 5 15 10 0 6 -7 10 -15 10 -8 0
-15 -4 -15 -10z"></path>
<path d="M675 4401 c-11 -19 -8 -700 3 -714 12 -14 170 -15 191 -2 14 8 15
195 1 195 -6 0 -10 -33 -10 -78 0 -47 -5 -83 -12 -90 -7 -7 -39 -12 -73 -12
-34 0 -66 5 -73 12 -9 9 -12 96 -12 329 0 270 2 318 15 329 18 15 432 17 447
2 5 -5 8 -31 6 -58 l-3 -49 -110 -3 c-152 -4 -161 -22 -12 -24 64 -1 125 -2
135 -2 15 -1 17 9 17 84 l0 85 -252 3 c-157 1 -254 -1 -258 -7z"></path>
<path d="M1322 4398 c-16 -16 -17 -704 -1 -713 12 -8 514 -9 526 -2 5 3 7 40
7 84 l-2 78 -146 3 c-95 2 -146 -1 -146 -8 0 -6 46 -10 123 -10 82 0 127 -4
135 -12 16 -16 16 -90 0 -106 -16 -16 -440 -17 -469 -2 -18 10 -19 25 -19 335
0 243 3 326 12 331 17 11 470 6 481 -5 4 -4 7 -30 5 -57 l-3 -49 -128 -3
c-140 -3 -170 -12 -181 -58 -8 -29 1 -64 14 -64 5 0 7 13 4 29 -3 16 -1 38 6
50 11 22 16 22 158 20 l147 -2 6 79 c3 43 3 82 1 87 -6 13 -516 9 -530 -5z"></path>
<path d="M2007 4403 c-4 -3 -7 -165 -7 -359 0 -327 1 -354 18 -361 9 -4 132
-6 272 -3 l255 5 0 80 0 80 -147 3 c-97 2 -148 -1 -148 -8 0 -6 48 -10 130
-10 143 0 150 -3 150 -68 0 -59 -14 -62 -254 -62 -131 0 -225 4 -237 10 -18
10 -19 25 -19 329 0 269 2 320 15 331 20 16 461 16 481 -1 16 -13 18 -62 4
-90 -10 -17 -22 -19 -140 -19 -77 0 -131 -4 -135 -10 -4 -7 44 -10 147 -8
l153 3 0 80 0 80 -266 3 c-146 1 -268 -1 -272 -5z"></path>
<path d="M2697 4404 c-13 -13 -8 -712 5 -720 17 -11 559 -5 573 6 15 12 19
323 5 351 -10 18 -20 19 -108 17 l-97 -3 -3 -32 c-2 -19 1 -33 7 -33 6 0 11 7
11 15 0 27 45 39 108 29 l57 -9 3 -149 c2 -101 -1 -153 -9 -162 -17 -20 -511
-21 -528 0 -8 9 -11 106 -9 337 l3 323 30 6 c17 4 53 4 80 1 l50 -6 3 -242 c1
-141 6 -243 12 -243 10 0 18 395 10 470 l-5 45 -95 3 c-53 1 -99 0 -103 -4z"></path>
<path d="M3545 4403 c-37 -8 -98 -57 -121 -98 -22 -38 -23 -49 -24 -260 0
-200 2 -224 20 -259 22 -44 49 -76 63 -76 6 0 18 -7 27 -15 13 -11 61 -15 251
-16 130 -1 240 1 246 4 16 10 16 359 1 369 -7 4 -59 8 -115 8 -120 0 -115 4
-111 -119 4 -120 25 -104 30 24 l3 60 85 0 85 0 5 -54 c3 -30 3 -102 0 -160
l-5 -106 -226 0 -226 0 -36 28 c-69 52 -72 65 -72 313 l0 220 27 41 c43 66 73
74 272 76 196 2 206 -1 206 -63 0 -29 -6 -43 -25 -58 -31 -25 -31 -32 -1 -32
38 0 47 21 44 102 l-3 73 -190 1 c-104 1 -199 0 -210 -3z"></path>
<path d="M4247 4390 c-14 -11 -29 -20 -35 -20 -16 0 -40 -34 -47 -67 -3 -18
-11 -35 -16 -38 -5 -4 -9 -95 -9 -207 0 -242 11 -291 75 -343 43 -36 65 -40
228 -51 69 -5 97 -3 97 5 0 7 -26 11 -74 11 -91 0 -198 24 -236 52 -16 11 -38
42 -49 69 -19 43 -21 68 -21 236 0 103 5 205 11 226 15 56 63 105 115 118 24
6 44 15 44 20 0 17 -57 9 -83 -11z"></path>
<path d="M4590 4402 c0 -6 15 -14 34 -17 52 -10 93 -40 116 -84 18 -37 20 -59
20 -256 0 -238 -5 -262 -59 -307 -18 -15 -54 -31 -86 -38 -70 -15 -72 -31 -2
-23 50 6 111 35 133 64 26 34 34 104 34 303 0 243 -6 273 -67 323 -43 35 -123
58 -123 35z"></path>
<path d="M5716 4402 c-10 -17 -9 -703 1 -713 7 -7 103 -11 248 -11 193 0 240
3 253 15 9 8 26 17 38 21 11 3 33 25 47 47 l27 41 0 245 0 245 -29 37 c-16 20
-49 47 -74 59 -42 21 -56 22 -275 22 -127 0 -233 -4 -236 -8z m510 -38 c17 -8
42 -29 55 -47 24 -32 24 -34 24 -272 0 -237 0 -240 -24 -274 -45 -63 -79 -71
-317 -71 -167 0 -214 3 -223 14 -8 9 -11 107 -9 337 l3 324 45 5 c95 11 414
-1 446 -16z"></path>
<path d="M5980 4251 c0 -16 19 -23 40 -16 30 10 24 25 -10 25 -16 0 -30 -4
-30 -9z"></path>
<path d="M6094 4221 c21 -23 26 -26 26 -11 0 5 -10 15 -22 21 -23 12 -23 12
-4 -10z"></path>
<path d="M5900 4040 c0 -93 4 -150 10 -150 6 0 10 57 10 150 0 93 -4 150 -10
150 -6 0 -10 -57 -10 -150z"></path>
<path d="M6120 4045 c0 -83 4 -135 10 -135 6 0 10 52 10 135 0 83 -4 135 -10
135 -6 0 -10 -52 -10 -135z"></path>
<path d="M6090 3865 c-9 -10 -31 -15 -71 -15 -33 0 -59 -4 -59 -10 0 -19 103
-11 130 10 14 10 22 21 19 25 -3 3 -12 -1 -19 -10z"></path>
<path d="M4377 4232 l-27 -28 0 -161 c0 -155 1 -163 23 -189 33 -38 111 -45
161 -15 45 28 48 48 44 230 l-3 143 -30 24 c-24 19 -42 24 -86 24 -48 0 -59
-4 -82 -28z m162 -6 c8 -9 11 -69 9 -192 l-3 -179 -75 -3 c-62 -2 -77 0 -87
14 -18 25 -18 339 0 359 17 19 140 20 156 1z"></path>
<path d="M5175 4250 c-4 -6 18 -10 58 -10 45 0 68 -5 77 -15 16 -20 21 -340 6
-360 -7 -10 -34 -16 -79 -17 -97 -4 -97 -4 -97 200 0 106 -3 161 -10 157 -6
-4 -10 -70 -10 -166 l0 -160 27 -25 c14 -13 37 -27 50 -30 40 -10 104 3 127
26 20 19 21 31 21 196 0 173 0 176 -24 195 -17 14 -39 19 -82 19 -32 0 -61 -4
-64 -10z"></path>
<path d="M3680 4240 c0 -5 7 -10 15 -10 8 0 15 5 15 10 0 6 -7 10 -15 10 -8 0
-15 -4 -15 -10z"></path>
<path d="M3750 4240 c0 -5 18 -10 40 -10 22 0 40 5 40 10 0 6 -18 10 -40 10
-22 0 -40 -4 -40 -10z"></path>
<path d="M3626 4205 c-18 -27 -22 -125 -6 -125 6 0 10 26 10 57 0 38 5 62 17
75 9 10 11 18 6 18 -6 0 -18 -11 -27 -25z"></path>
<path d="M860 4170 c0 -11 5 -20 10 -20 6 0 10 9 10 20 0 11 -4 20 -10 20 -5
0 -10 -9 -10 -20z"></path>
<path d="M1550 4120 c0 -6 30 -10 73 -11 111 -2 121 -7 125 -59 5 -60 -11 -70
-114 -70 -53 0 -85 -4 -92 -12 -8 -10 13 -12 101 -10 62 2 118 5 125 7 9 4 12
26 10 82 l-3 78 -112 3 c-73 2 -113 -1 -113 -8z"></path>
<path d="M2240 4120 c0 -6 34 -10 83 -10 51 0 88 -5 95 -12 7 -7 12 -31 12
-55 0 -54 -16 -63 -114 -63 -44 0 -76 -4 -76 -10 0 -6 41 -10 104 -10 l104 0
4 76 c2 41 -1 79 -6 85 -13 12 -206 12 -206 -1z"></path>
<path d="M998 4093 c-82 -5 -72 -22 15 -25 l72 -3 0 -55 0 -55 -83 -5 c-52 -4
-87 -11 -97 -20 -13 -13 -2 -15 90 -12 122 4 126 6 122 97 -2 43 -7 60 -22 71
-10 8 -24 13 -29 12 -6 -1 -37 -3 -68 -5z"></path>
<path d="M3612 3961 c2 -76 11 -116 21 -100 7 13 -6 189 -15 189 -6 0 -9 -32
-6 -89z"></path>
<path d="M1515 3930 c-8 -13 4 -70 15 -70 5 0 6 17 3 38 -7 43 -9 47 -18 32z"></path>
<path d="M4924 3840 c3 -16 9 -43 12 -60 3 -19 21 -42 47 -64 37 -29 53 -35
136 -45 81 -10 115 -9 100 2 -2 2 -46 11 -98 20 -81 14 -98 20 -127 48 -21 20
-37 49 -45 80 -14 53 -34 68 -25 19z"></path>
<path d="M2940 3840 c0 -5 20 -10 45 -10 25 0 45 5 45 10 0 6 -20 10 -45 10
-25 0 -45 -4 -45 -10z"></path>
<path d="M3660 3840 c0 -5 25 -10 55 -10 30 0 55 5 55 10 0 6 -25 10 -55 10
-30 0 -55 -4 -55 -10z"></path>
<path d="M3607 3464 c-4 -4 -7 -15 -7 -24 0 -9 -13 -36 -30 -58 -16 -23 -30
-47 -30 -54 0 -7 -9 -24 -20 -38 -11 -14 -20 -30 -20 -36 0 -6 -7 -17 -15 -24
-8 -7 -15 -19 -15 -26 0 -8 -16 -37 -35 -64 -19 -27 -35 -55 -35 -60 0 -6 -8
-23 -19 -38 -52 -75 -79 -121 -73 -126 11 -12 80 -6 118 10 22 9 60 17 87 17
26 0 47 4 47 8 0 17 -55 18 -115 2 -88 -23 -98 -13 -59 60 58 109 167 287 176
287 10 0 6 -64 -8 -128 -5 -27 -2 -38 17 -58 26 -28 61 -31 133 -9 60 18 75
19 82 2 2 -7 -39 -85 -92 -173 -53 -87 -106 -174 -116 -191 -21 -35 -38 -43
-38 -18 0 8 -4 15 -10 15 -9 0 -30 -61 -30 -88 0 -8 -8 -27 -17 -43 -9 -15
-14 -32 -9 -36 11 -12 39 10 57 45 9 17 28 47 43 66 14 19 26 39 26 45 0 6 16
35 35 65 19 30 35 58 35 62 0 4 7 16 17 26 18 20 36 50 53 87 6 13 24 41 40
61 17 21 30 45 30 53 0 8 7 20 15 27 49 41 -29 55 -109 19 -31 -13 -62 -19
-94 -17 -45 3 -47 4 -50 35 -2 17 4 45 12 62 9 16 16 48 16 69 0 22 9 60 21
86 11 26 19 59 17 73 -3 27 -18 39 -31 27z"></path>
<path d="M3570 2900 c0 -11 5 -20 10 -20 6 0 10 9 10 20 0 11 -4 20 -10 20 -5
0 -10 -9 -10 -20z"></path>
<path d="M3552 2848 c-7 -7 -12 -32 -12 -57 0 -57 16 -43 25 22 8 50 6 54 -13
35z"></path>
</g>
</svg>